<svg xmlns="http://www.w3.org/2000/svg" xmlns:xlink="http://www.w3.org/1999/xlink" width="1920" zoomAndPan="magnify" viewBox="0 0 1440 809.999993" height="1080" preserveAspectRatio="xMidYMid meet" version="1.0"><defs><clipPath id="decb9bfef2"><path d="M 10.699219 0.828125 L 125.71875 0.828125 L 125.71875 64.414062 L 10.699219 64.414062 Z M 10.699219 0.828125 " clip-rule="nonzero"/></clipPath><clipPath id="88e3a7858e"><path d="M 4.324219 97.042969 L 132.300781 97.042969 L 132.300781 151.71875 L 4.324219 151.71875 Z M 4.324219 97.042969 " clip-rule="nonzero"/></clipPath><clipPath id="2d50341638"><path d="M 27 32.617188 L 110 32.617188 L 110 80 L 27 80 Z M 27 32.617188 " clip-rule="nonzero"/></clipPath><clipPath id="a6176652df"><path d="M 0.394531 59 L 136.066406 59 L 136.066406 124.550781 L 0.394531 124.550781 Z M 0.394531 59 " clip-rule="nonzero"/></clipPath><clipPath id="fce6ed1ff1"><rect x="0" width="137" y="0" height="152"/></clipPath></defs><rect x="-144" width="1728" fill="#ffffff" y="-80.999999" height="971.999992" fill-opacity="1"/><g transform="matrix(1, 0, 0, 1, 651, 328)"><g clip-path="url(#fce6ed1ff1)"><g clip-path="url(#decb9bfef2)"><path fill="#000000" d="M 96.957031 10.980469 C 82.902344 10.707031 71.945312 3.394531 68.203125 0.835938 C 64.460938 3.394531 53.507812 10.707031 39.449219 10.980469 C 24.023438 11.347656 14.347656 7.597656 10.695312 5.128906 L 10.695312 46.078125 L 16.902344 46.078125 L 16.902344 14.453125 C 23.566406 16.375 30.503906 17.289062 37.441406 17.195312 L 39.632812 17.195312 C 49.21875 16.921875 58.984375 13.8125 68.203125 8.148438 C 77.421875 13.8125 87.191406 16.921875 96.777344 17.105469 L 98.964844 17.105469 C 105.902344 17.195312 112.839844 16.28125 119.503906 14.363281 L 119.503906 45.988281 L 125.710938 45.988281 L 125.710938 5.128906 C 122.0625 7.597656 112.386719 11.347656 96.957031 10.980469 Z M 104.261719 98.730469 C 94.585938 112.074219 81.804688 121.671875 68.203125 126.058594 C 54.511719 121.761719 41.824219 112.074219 32.148438 98.820312 C 29.5 95.164062 27.125 91.324219 25.117188 87.304688 L 18.179688 87.304688 C 27.855469 108.050781 46.203125 126.242188 68.203125 132.457031 C 84.636719 127.796875 98.964844 116.460938 109.28125 102.386719 C 112.75 97.632812 115.761719 92.511719 118.226562 87.210938 L 111.378906 87.210938 C 109.28125 91.234375 106.90625 95.074219 104.261719 98.730469 Z M 104.261719 98.730469 " fill-opacity="1" fill-rule="nonzero"/></g><g clip-path="url(#88e3a7858e)"><path fill="#000000" d="M 100.300781 16.90625 C 84.660156 16.601562 72.472656 8.480469 68.308594 5.636719 C 64.144531 8.480469 51.957031 16.601562 36.3125 16.90625 C 19.148438 17.3125 8.382812 13.148438 4.320312 10.410156 L 4.320312 55.894531 L 11.226562 55.894531 L 11.226562 20.765625 C 18.640625 22.898438 26.359375 23.914062 34.078125 23.808594 L 36.515625 23.808594 C 47.179688 23.507812 58.050781 20.054688 68.308594 13.757812 C 78.566406 20.054688 89.433594 23.507812 100.097656 23.710938 L 102.535156 23.710938 C 110.253906 23.808594 117.972656 22.796875 125.390625 20.664062 L 125.390625 55.792969 L 132.296875 55.792969 L 132.296875 10.410156 C 128.234375 13.148438 117.464844 17.3125 100.300781 16.90625 Z M 108.425781 114.375 C 97.660156 129.195312 83.441406 139.859375 68.308594 144.730469 C 53.074219 139.960938 38.953125 129.195312 28.1875 114.476562 C 25.242188 110.414062 22.601562 106.148438 20.367188 101.683594 L 12.648438 101.683594 C 23.414062 124.730469 43.828125 144.933594 68.308594 151.835938 C 86.589844 146.660156 102.535156 134.070312 114.011719 118.433594 C 117.871094 113.15625 121.222656 107.46875 123.96875 101.582031 L 116.347656 101.582031 C 114.011719 106.046875 111.371094 110.3125 108.425781 114.375 Z M 108.425781 114.375 " fill-opacity="1" fill-rule="nonzero"/></g><g clip-path="url(#2d50341638)"><path fill="#000000" d="M 29.703125 55.304688 C 44.347656 58.847656 57.078125 66.914062 65.550781 78.03125 C 66.195312 78.871094 67.191406 79.367188 68.25 79.367188 C 69.308594 79.363281 70.304688 78.871094 70.945312 78.027344 C 79.410156 66.914062 92.136719 58.847656 106.78125 55.316406 C 107.949219 55.035156 108.878906 54.15625 109.230469 53.007812 C 109.582031 51.859375 109.304688 50.605469 108.492188 49.71875 C 98.617188 38.871094 83.949219 32.652344 68.25 32.652344 C 52.546875 32.652344 37.875 38.867188 27.992188 49.707031 C 27.183594 50.59375 26.902344 51.84375 27.253906 52.996094 C 27.605469 54.144531 28.535156 55.023438 29.703125 55.304688 Z M 68.25 39.449219 C 79.992188 39.449219 91.039062 43.371094 99.367188 50.355469 C 87.09375 54.371094 76.300781 61.386719 68.246094 70.597656 C 60.1875 61.390625 49.390625 54.371094 37.121094 50.351562 C 45.453125 43.371094 56.503906 39.449219 68.25 39.449219 Z M 68.25 39.449219 " fill-opacity="1" fill-rule="nonzero"/></g><g clip-path="url(#a6176652df)"><path fill="#000000" d="M 132.558594 59.71875 C 126.050781 59.871094 119.625 60.824219 113.464844 62.550781 C 113.464844 62.550781 113.464844 62.550781 113.460938 62.550781 C 106.285156 64.550781 99.550781 67.554688 93.453125 71.476562 C 90.320312 73.476562 87.339844 75.75 84.605469 78.222656 C 82.691406 79.9375 80.875 81.773438 79.203125 83.675781 C 78.761719 84.179688 78.328125 84.691406 77.902344 85.207031 C 77.769531 85.371094 77.640625 85.535156 77.511719 85.699219 C 77.222656 86.054688 76.933594 86.414062 76.65625 86.773438 C 76.5 86.976562 76.351562 87.179688 76.199219 87.382812 C 75.949219 87.710938 75.703125 88.039062 75.464844 88.371094 C 75.304688 88.59375 75.148438 88.816406 74.992188 89.039062 C 74.871094 89.210938 74.746094 89.382812 74.625 89.558594 C 74.410156 89.742188 74.214844 89.953125 74.050781 90.195312 C 73.859375 90.46875 73.726562 90.761719 73.625 91.066406 C 73.363281 91.476562 73.105469 91.890625 72.855469 92.308594 C 72.84375 92.332031 72.828125 92.355469 72.8125 92.378906 C 72.808594 92.382812 72.804688 92.390625 72.800781 92.398438 C 72.800781 92.402344 72.796875 92.40625 72.796875 92.40625 C 72.792969 92.40625 72.792969 92.410156 72.792969 92.410156 C 70.800781 95.6875 69.144531 99.125 67.851562 102.667969 C 66.597656 99.242188 65 95.90625 63.054688 92.679688 C 62.785156 92.210938 62.5 91.753906 62.203125 91.296875 C 62.066406 91.070312 61.917969 90.847656 61.773438 90.625 L 61.636719 90.417969 C 61.585938 90.335938 61.527344 90.257812 61.46875 90.183594 C 60.785156 89.160156 60.070312 88.160156 59.339844 87.195312 C 58.609375 86.230469 57.859375 85.296875 57.09375 84.40625 C 55.167969 82.128906 52.992188 79.914062 50.632812 77.828125 C 48.113281 75.589844 45.296875 73.457031 42.273438 71.496094 C 42.269531 71.496094 42.269531 71.496094 42.269531 71.496094 C 42.265625 71.492188 42.261719 71.492188 42.257812 71.488281 C 36.359375 67.703125 29.878906 64.769531 22.988281 62.769531 C 22.988281 62.769531 22.984375 62.769531 22.984375 62.769531 C 16.824219 60.980469 10.421875 59.960938 3.957031 59.746094 C 2.085938 59.6875 0.515625 61.15625 0.453125 63.03125 C 0.390625 64.910156 1.859375 66.480469 3.730469 66.542969 C 8.480469 66.703125 13.1875 67.34375 17.773438 68.433594 C 16.933594 71.742188 16.503906 75.140625 16.503906 78.582031 C 16.503906 88.199219 19.8125 97.414062 26.078125 105.230469 C 33.683594 114.707031 44.902344 121.214844 57.660156 123.5625 C 60.929688 124.167969 64.335938 124.492188 67.789062 124.523438 C 67.800781 124.523438 67.808594 124.523438 67.820312 124.523438 C 67.824219 124.523438 67.828125 124.523438 67.832031 124.523438 C 67.835938 124.523438 67.839844 124.523438 67.84375 124.523438 L 68.242188 124.523438 C 71.800781 124.523438 75.355469 124.199219 78.8125 123.5625 C 91.582031 121.210938 102.800781 114.703125 110.402344 105.230469 C 116.660156 97.414062 119.972656 88.199219 119.972656 78.582031 C 119.972656 75.09375 119.527344 71.632812 118.65625 68.253906 C 123.234375 67.21875 127.945312 66.628906 132.714844 66.515625 C 134.585938 66.46875 136.070312 64.910156 136.023438 63.035156 C 135.984375 61.160156 134.441406 59.675781 132.558594 59.71875 Z M 80.207031 93.4375 C 80.789062 92.585938 81.398438 91.746094 82.039062 90.917969 C 82.089844 90.851562 82.144531 90.785156 82.195312 90.71875 C 82.484375 90.347656 82.796875 89.992188 83.097656 89.625 C 84.230469 90.886719 85.972656 91.703125 87.941406 91.734375 C 91.421875 91.785156 94.28125 89.347656 94.339844 86.285156 C 94.375 84.234375 93.144531 82.433594 91.28125 81.449219 C 91.328125 81.410156 91.378906 81.371094 91.425781 81.332031 C 91.839844 80.992188 92.253906 80.660156 92.675781 80.335938 C 92.886719 80.171875 93.101562 80.011719 93.3125 79.851562 C 93.746094 79.527344 94.179688 79.207031 94.621094 78.894531 C 94.8125 78.761719 95 78.621094 95.195312 78.488281 C 95.273438 78.433594 95.355469 78.382812 95.433594 78.328125 C 98.304688 80.246094 99.992188 83.195312 99.941406 86.355469 C 99.828125 91.90625 94.367188 96.34375 87.84375 96.25 C 84.90625 96.207031 82.179688 95.28125 80.0625 93.648438 C 80.109375 93.578125 80.160156 93.507812 80.207031 93.4375 Z M 40.359375 78.402344 C 40.40625 78.433594 40.453125 78.464844 40.496094 78.496094 C 40.648438 78.601562 40.792969 78.710938 40.941406 78.816406 C 41.394531 79.136719 41.839844 79.457031 42.277344 79.785156 C 42.46875 79.929688 42.65625 80.070312 42.84375 80.214844 C 43.25 80.527344 43.648438 80.84375 44.042969 81.160156 C 44.183594 81.273438 44.324219 81.386719 44.460938 81.496094 C 42.945312 82.507812 41.964844 84.101562 41.964844 85.902344 C 41.964844 88.964844 44.792969 91.453125 48.269531 91.453125 C 50.015625 91.453125 51.578125 90.808594 52.714844 89.796875 C 53.125 90.300781 53.539062 90.792969 53.9375 91.316406 C 54.152344 91.601562 54.355469 91.902344 54.566406 92.191406 C 54.941406 92.710938 55.316406 93.230469 55.679688 93.765625 C 53.601562 95.175781 51.011719 95.957031 48.269531 95.957031 C 41.710938 95.957031 36.375 91.445312 36.375 85.902344 C 36.375 82.996094 37.835938 80.296875 40.359375 78.402344 Z M 58.894531 116.875 C 47.734375 114.820312 37.957031 109.175781 31.371094 100.972656 C 26.089844 94.378906 23.296875 86.636719 23.296875 78.582031 C 23.296875 75.78125 23.632812 73.015625 24.300781 70.316406 C 27.78125 71.511719 31.121094 72.996094 34.308594 74.714844 C 31.320312 77.757812 29.585938 81.734375 29.585938 85.902344 C 29.585938 95.195312 37.96875 102.757812 48.269531 102.757812 C 52.21875 102.757812 55.984375 101.628906 59.113281 99.609375 C 61.992188 105.3125 63.730469 111.324219 64.257812 117.574219 C 62.4375 117.433594 60.644531 117.199219 58.894531 116.875 Z M 105.117188 100.972656 C 98.535156 109.171875 88.761719 114.820312 77.589844 116.875 C 75.5625 117.25 73.492188 117.503906 71.410156 117.628906 C 71.933594 111.347656 73.691406 105.292969 76.613281 99.535156 C 79.765625 101.742188 83.636719 102.988281 87.746094 103.046875 C 87.84375 103.050781 87.941406 103.050781 88.042969 103.050781 C 98.1875 103.050781 106.542969 95.675781 106.726562 86.484375 C 106.726562 86.484375 106.726562 86.480469 106.726562 86.476562 C 106.804688 81.949219 104.914062 77.722656 101.59375 74.582031 C 104.941406 72.792969 108.457031 71.277344 112.121094 70.066406 C 112.832031 72.855469 113.191406 75.707031 113.191406 78.582031 C 113.191406 86.636719 110.398438 94.378906 105.117188 100.972656 Z M 105.117188 100.972656 " fill-opacity="1" fill-rule="nonzero"/></g></g></g></svg>