<svg xmlns="http://www.w3.org/2000/svg" xmlns:xlink="http://www.w3.org/1999/xlink" width="500" zoomAndPan="magnify" viewBox="0 0 375 374.999991" height="500" preserveAspectRatio="xMidYMid meet" version="1.0"><defs><g/><clipPath id="27d3f967d4"><path d="M 44.535156 149.804688 L 97.785156 149.804688 L 97.785156 179.054688 L 44.535156 179.054688 Z M 44.535156 149.804688 " clip-rule="nonzero"/></clipPath><clipPath id="a54c0c36b3"><path d="M 41.585938 198.59375 L 100.835938 198.59375 L 100.835938 223.773438 L 41.585938 223.773438 Z M 41.585938 198.59375 " clip-rule="nonzero"/></clipPath><clipPath id="c38f89ab34"><path d="M 52 164.523438 L 91 164.523438 L 91 187 L 52 187 Z M 52 164.523438 " clip-rule="nonzero"/></clipPath><clipPath id="0ba5a4e2ed"><path d="M 39.765625 177 L 102.765625 177 L 102.765625 207.273438 L 39.765625 207.273438 Z M 39.765625 177 " clip-rule="nonzero"/></clipPath></defs><g fill="#ffffff" fill-opacity="1"><g transform="translate(108.765209, 189.362918)"><g><path d="M 4.703125 -6.75 L 4.703125 0 L 2.15625 0 L 2.15625 -18.8125 L 8.546875 -18.8125 C 11.210938 -18.8125 13.117188 -18.351562 14.265625 -17.4375 C 15.410156 -16.53125 15.984375 -15.03125 15.984375 -12.9375 C 15.984375 -11.289062 15.617188 -9.984375 14.890625 -9.015625 C 14.160156 -8.046875 13.054688 -7.390625 11.578125 -7.046875 L 16.5 0 L 13.4375 0 L 8.875 -6.75 Z M 13.40625 -12.9375 C 13.40625 -14.207031 13.035156 -15.117188 12.296875 -15.671875 C 11.554688 -16.222656 10.304688 -16.5 8.546875 -16.5 L 4.703125 -16.5 L 4.703125 -9 L 8.546875 -9 C 10.265625 -9 11.503906 -9.304688 12.265625 -9.921875 C 13.023438 -10.546875 13.40625 -11.550781 13.40625 -12.9375 Z M 13.40625 -12.9375 "/></g></g></g><g fill="#ffffff" fill-opacity="1"><g transform="translate(126.128459, 189.362918)"><g><path d="M 14.640625 -2.40625 L 14.640625 0 L 2.15625 0 L 2.15625 -18.8125 L 14.375 -18.8125 L 14.375 -16.5 L 4.703125 -16.5 L 4.703125 -10.734375 L 13.265625 -10.734375 L 13.265625 -8.484375 L 4.703125 -8.484375 L 4.703125 -2.40625 Z M 14.640625 -2.40625 "/></g></g></g><g fill="#ffffff" fill-opacity="1"><g transform="translate(141.812368, 189.362918)"><g><path d="M 9.421875 -7.890625 L 4.859375 -8.96875 C 3.597656 -9.269531 2.6875 -9.785156 2.125 -10.515625 C 1.570312 -11.242188 1.296875 -12.257812 1.296875 -13.5625 C 1.296875 -15.457031 1.835938 -16.851562 2.921875 -17.75 C 4.015625 -18.65625 5.710938 -19.109375 8.015625 -19.109375 C 8.972656 -19.109375 9.835938 -19.0625 10.609375 -18.96875 C 11.378906 -18.882812 12.09375 -18.75 12.75 -18.5625 L 12.75 -16.265625 C 11.90625 -16.460938 11.101562 -16.597656 10.34375 -16.671875 C 9.582031 -16.753906 8.796875 -16.796875 7.984375 -16.796875 C 6.441406 -16.796875 5.359375 -16.570312 4.734375 -16.125 C 4.117188 -15.675781 3.8125 -14.878906 3.8125 -13.734375 C 3.8125 -13.015625 3.957031 -12.46875 4.25 -12.09375 C 4.539062 -11.726562 5.015625 -11.46875 5.671875 -11.3125 L 10.203125 -10.234375 C 11.796875 -9.847656 12.859375 -9.3125 13.390625 -8.625 C 13.921875 -7.9375 14.1875 -6.875 14.1875 -5.4375 C 14.1875 -3.375 13.648438 -1.910156 12.578125 -1.046875 C 11.515625 -0.191406 9.820312 0.234375 7.5 0.234375 C 6.28125 0.234375 5.101562 0.15625 3.96875 0 C 2.84375 -0.15625 1.953125 -0.363281 1.296875 -0.625 L 1.296875 -3.03125 C 2.234375 -2.75 3.226562 -2.53125 4.28125 -2.375 C 5.34375 -2.226562 6.414062 -2.15625 7.5 -2.15625 C 9 -2.15625 10.046875 -2.375 10.640625 -2.8125 C 11.242188 -3.257812 11.546875 -4.113281 11.546875 -5.375 C 11.546875 -6.15625 11.398438 -6.71875 11.109375 -7.0625 C 10.828125 -7.414062 10.265625 -7.691406 9.421875 -7.890625 Z M 9.421875 -7.890625 "/></g></g></g><g fill="#ffffff" fill-opacity="1"><g transform="translate(156.926499, 189.362918)"><g><path d="M 4.703125 -18.8125 L 4.703125 0 L 2.15625 0 L 2.15625 -18.8125 Z M 4.703125 -18.8125 "/></g></g></g><g fill="#ffffff" fill-opacity="1"><g transform="translate(163.793835, 189.362918)"><g><path d="M 13.6875 -2.40625 L 13.6875 0 L 2.15625 0 L 2.15625 -18.8125 L 4.703125 -18.8125 L 4.703125 -2.40625 Z M 13.6875 -2.40625 "/></g></g></g><g fill="#ffffff" fill-opacity="1"><g transform="translate(177.948332, 189.362918)"><g><path d="M 4.703125 -18.8125 L 4.703125 0 L 2.15625 0 L 2.15625 -18.8125 Z M 4.703125 -18.8125 "/></g></g></g><g fill="#ffffff" fill-opacity="1"><g transform="translate(184.815668, 189.362918)"><g><path d="M 14.640625 -2.40625 L 14.640625 0 L 2.15625 0 L 2.15625 -18.8125 L 14.375 -18.8125 L 14.375 -16.5 L 4.703125 -16.5 L 4.703125 -10.734375 L 13.265625 -10.734375 L 13.265625 -8.484375 L 4.703125 -8.484375 L 4.703125 -2.40625 Z M 14.640625 -2.40625 "/></g></g></g><g fill="#ffffff" fill-opacity="1"><g transform="translate(200.499577, 189.362918)"><g><path d="M 17.546875 -18.8125 L 17.546875 0 L 14.96875 0 L 4.5625 -14.640625 L 4.5625 0 L 2.15625 0 L 2.15625 -18.8125 L 4.734375 -18.8125 L 15.15625 -3.953125 L 15.15625 -18.8125 Z M 17.546875 -18.8125 "/></g></g></g><g fill="#ffffff" fill-opacity="1"><g transform="translate(220.201919, 189.362918)"><g><path d="M 15.484375 -18.8125 L 15.484375 -16.5 L 9.234375 -16.5 L 9.234375 0 L 6.6875 0 L 6.6875 -16.5 L 0.453125 -16.5 L 0.453125 -18.8125 Z M 15.484375 -18.8125 "/></g></g></g><g fill="#ffffff" fill-opacity="1"><g transform="translate(236.125731, 189.362918)"><g/></g></g><g fill="#008542" fill-opacity="1"><g transform="translate(241.257388, 189.362918)"><g><path d="M 4.703125 -6.09375 L 4.703125 0 L 2.15625 0 L 2.15625 -18.8125 L 8.546875 -18.8125 C 11.210938 -18.8125 13.117188 -18.332031 14.265625 -17.375 C 15.410156 -16.414062 15.984375 -14.84375 15.984375 -12.65625 C 15.984375 -10.4375 15.382812 -8.785156 14.1875 -7.703125 C 12.988281 -6.628906 11.140625 -6.09375 8.640625 -6.09375 Z M 13.40625 -12.65625 C 13.40625 -14.039062 13.03125 -15.023438 12.28125 -15.609375 C 11.53125 -16.203125 10.285156 -16.5 8.546875 -16.5 L 4.703125 -16.5 L 4.703125 -8.34375 L 8.546875 -8.34375 C 10.285156 -8.34375 11.53125 -8.679688 12.28125 -9.359375 C 13.03125 -10.035156 13.40625 -11.132812 13.40625 -12.65625 Z M 13.40625 -12.65625 "/></g></g></g><g fill="#008542" fill-opacity="1"><g transform="translate(258.140833, 189.362918)"><g><path d="M 4.703125 -6.75 L 4.703125 0 L 2.15625 0 L 2.15625 -18.8125 L 8.546875 -18.8125 C 11.210938 -18.8125 13.117188 -18.351562 14.265625 -17.4375 C 15.410156 -16.53125 15.984375 -15.03125 15.984375 -12.9375 C 15.984375 -11.289062 15.617188 -9.984375 14.890625 -9.015625 C 14.160156 -8.046875 13.054688 -7.390625 11.578125 -7.046875 L 16.5 0 L 13.4375 0 L 8.875 -6.75 Z M 13.40625 -12.9375 C 13.40625 -14.207031 13.035156 -15.117188 12.296875 -15.671875 C 11.554688 -16.222656 10.304688 -16.5 8.546875 -16.5 L 4.703125 -16.5 L 4.703125 -9 L 8.546875 -9 C 10.265625 -9 11.503906 -9.304688 12.265625 -9.921875 C 13.023438 -10.546875 13.40625 -11.550781 13.40625 -12.9375 Z M 13.40625 -12.9375 "/></g></g></g><g fill="#008542" fill-opacity="1"><g transform="translate(275.504082, 189.362918)"><g><path d="M 4.703125 -18.8125 L 4.703125 0 L 2.15625 0 L 2.15625 -18.8125 Z M 4.703125 -18.8125 "/></g></g></g><g fill="#008542" fill-opacity="1"><g transform="translate(282.371418, 189.362918)"><g><path d="M 7.296875 0 L 0.234375 -18.8125 L 3.0625 -18.8125 L 7.375 -6.90625 C 7.539062 -6.40625 7.742188 -5.769531 7.984375 -5 C 8.222656 -4.226562 8.507812 -3.234375 8.84375 -2.015625 C 9.101562 -2.972656 9.359375 -3.878906 9.609375 -4.734375 C 9.859375 -5.597656 10.085938 -6.320312 10.296875 -6.90625 L 14.578125 -18.8125 L 17.34375 -18.8125 L 10.296875 0 Z M 7.296875 0 "/></g></g></g><g fill="#008542" fill-opacity="1"><g transform="translate(299.944587, 189.362918)"><g><path d="M 2.9375 0 L 0.234375 0 L 7.6875 -18.8125 L 10.3125 -18.8125 L 17.671875 0 L 14.96875 0 L 13.265625 -4.53125 L 4.65625 -4.53125 Z M 8.9375 -16.46875 C 8.738281 -15.769531 8.503906 -15.03125 8.234375 -14.25 C 7.960938 -13.46875 7.6875 -12.6875 7.40625 -11.90625 L 5.484375 -6.78125 L 12.421875 -6.78125 L 10.5 -11.90625 C 10.101562 -13.007812 9.785156 -13.898438 9.546875 -14.578125 C 9.316406 -15.253906 9.113281 -15.882812 8.9375 -16.46875 Z M 8.9375 -16.46875 "/></g></g></g><g fill="#008542" fill-opacity="1"><g transform="translate(317.877615, 189.362918)"><g><path d="M 9.625 -2.15625 C 10.445312 -2.15625 11.3125 -2.25 12.21875 -2.4375 C 13.132812 -2.632812 13.984375 -2.890625 14.765625 -3.203125 L 14.765625 -0.9375 C 13.660156 -0.488281 12.679688 -0.179688 11.828125 -0.015625 C 10.984375 0.148438 10.101562 0.234375 9.1875 0.234375 C 6.300781 0.234375 4.265625 -0.507812 3.078125 -2 C 1.898438 -3.488281 1.3125 -5.972656 1.3125 -9.453125 C 1.3125 -12.785156 2 -15.226562 3.375 -16.78125 C 4.75 -18.332031 6.9375 -19.109375 9.9375 -19.109375 C 10.851562 -19.109375 11.671875 -19.085938 12.390625 -19.046875 C 13.109375 -19.003906 13.757812 -18.9375 14.34375 -18.84375 L 14.34375 -16.59375 C 13.644531 -16.664062 12.9375 -16.71875 12.21875 -16.75 C 11.507812 -16.78125 10.75 -16.796875 9.9375 -16.796875 C 7.6875 -16.796875 6.125 -16.238281 5.25 -15.125 C 4.375 -14.019531 3.9375 -12.128906 3.9375 -9.453125 C 3.9375 -6.734375 4.332031 -4.835938 5.125 -3.765625 C 5.925781 -2.691406 7.425781 -2.15625 9.625 -2.15625 Z M 9.625 -2.15625 "/></g></g></g><g fill="#008542" fill-opacity="1"><g transform="translate(333.411584, 189.362918)"><g><path d="M 14.28125 -18.8125 L 16.921875 -18.8125 L 9.9375 -7.140625 L 9.9375 0 L 7.375 0 L 7.375 -7.140625 L 0.203125 -18.8125 L 3.09375 -18.8125 L 8.703125 -9.421875 Z M 14.28125 -18.8125 "/></g></g></g><g clip-path="url(#27d3f967d4)"><path fill="#ffffff" d="M 84.507812 154.503906 C 77.992188 154.378906 72.917969 150.996094 71.183594 149.808594 C 69.449219 150.996094 64.371094 154.378906 57.859375 154.503906 C 50.710938 154.675781 46.226562 152.941406 44.535156 151.796875 L 44.535156 170.746094 L 47.410156 170.746094 L 47.410156 156.113281 C 50.5 157 53.714844 157.421875 56.929688 157.382812 L 57.945312 157.382812 C 62.386719 157.253906 66.910156 155.816406 71.183594 153.195312 C 75.453125 155.816406 79.980469 157.253906 84.421875 157.339844 L 85.4375 157.339844 C 88.652344 157.382812 91.867188 156.957031 94.953125 156.070312 L 94.953125 170.703125 L 97.832031 170.703125 L 97.832031 151.796875 C 96.136719 152.941406 91.65625 154.675781 84.507812 154.503906 Z M 87.890625 195.109375 C 83.40625 201.285156 77.484375 205.726562 71.183594 207.757812 C 64.839844 205.769531 58.957031 201.285156 54.476562 195.152344 C 53.25 193.460938 52.148438 191.683594 51.21875 189.824219 L 48.003906 189.824219 C 52.488281 199.425781 60.988281 207.84375 71.183594 210.71875 C 78.796875 208.5625 85.4375 203.316406 90.214844 196.800781 C 91.824219 194.601562 93.21875 192.234375 94.363281 189.78125 L 91.191406 189.78125 C 90.214844 191.640625 89.117188 193.417969 87.890625 195.109375 Z M 87.890625 195.109375 " fill-opacity="1" fill-rule="nonzero"/></g><g clip-path="url(#a54c0c36b3)"><path fill="#ffffff" d="M 85.984375 161.492188 C 78.75 161.351562 73.109375 157.59375 71.183594 156.277344 C 69.257812 157.59375 63.621094 161.351562 56.382812 161.492188 C 48.441406 161.679688 43.460938 159.753906 41.582031 158.484375 L 41.582031 179.535156 L 44.777344 179.535156 L 44.777344 163.277344 C 48.207031 164.265625 51.777344 164.734375 55.351562 164.6875 L 56.476562 164.6875 C 61.410156 164.546875 66.4375 162.949219 71.183594 160.035156 C 75.929688 162.949219 80.957031 164.546875 85.890625 164.640625 L 87.019531 164.640625 C 90.589844 164.6875 94.160156 164.21875 97.589844 163.230469 L 97.589844 179.488281 L 100.785156 179.488281 L 100.785156 158.484375 C 98.90625 159.753906 93.925781 161.679688 85.984375 161.492188 Z M 89.742188 206.597656 C 84.761719 213.457031 78.183594 218.390625 71.183594 220.648438 C 64.136719 218.4375 57.605469 213.457031 52.625 206.644531 C 51.261719 204.765625 50.039062 202.792969 49.007812 200.726562 L 45.4375 200.726562 C 50.417969 211.390625 59.859375 220.742188 71.183594 223.933594 C 79.640625 221.539062 87.019531 215.714844 92.328125 208.476562 C 94.113281 206.035156 95.664062 203.402344 96.929688 200.679688 L 93.40625 200.679688 C 92.328125 202.746094 91.105469 204.71875 89.742188 206.597656 Z M 89.742188 206.597656 " fill-opacity="1" fill-rule="nonzero"/></g><g clip-path="url(#c38f89ab34)"><path fill="#ffffff" d="M 53.34375 175.007812 C 60.125 176.644531 66.023438 180.375 69.949219 185.511719 C 70.246094 185.902344 70.707031 186.128906 71.199219 186.128906 C 71.6875 186.128906 72.148438 185.898438 72.449219 185.511719 C 76.367188 180.371094 82.265625 176.644531 89.046875 175.011719 C 89.585938 174.882812 90.019531 174.476562 90.183594 173.945312 C 90.34375 173.414062 90.214844 172.835938 89.839844 172.421875 C 85.265625 167.410156 78.46875 164.53125 71.199219 164.53125 C 63.925781 164.53125 57.128906 167.40625 52.550781 172.417969 C 52.175781 172.828125 52.042969 173.40625 52.207031 173.9375 C 52.371094 174.46875 52.800781 174.875 53.34375 175.007812 Z M 71.199219 167.675781 C 76.636719 167.675781 81.753906 169.488281 85.613281 172.71875 C 79.925781 174.574219 74.925781 177.816406 71.195312 182.078125 C 67.464844 177.816406 62.460938 174.574219 56.777344 172.714844 C 60.636719 169.488281 65.757812 167.675781 71.199219 167.675781 Z M 71.199219 167.675781 " fill-opacity="1" fill-rule="nonzero"/></g><g clip-path="url(#0ba5a4e2ed)"><path fill="#ffffff" d="M 100.988281 177.046875 C 97.972656 177.117188 94.996094 177.558594 92.144531 178.355469 C 92.140625 178.355469 92.140625 178.355469 92.140625 178.355469 C 88.816406 179.28125 85.699219 180.667969 82.871094 182.480469 C 81.421875 183.40625 80.042969 184.457031 78.773438 185.601562 C 77.886719 186.394531 77.046875 187.242188 76.273438 188.121094 C 76.066406 188.355469 75.867188 188.589844 75.667969 188.828125 C 75.609375 188.90625 75.546875 188.980469 75.488281 189.058594 C 75.355469 189.222656 75.222656 189.386719 75.09375 189.554688 C 75.019531 189.648438 74.949219 189.742188 74.878906 189.835938 C 74.765625 189.988281 74.652344 190.140625 74.539062 190.292969 C 74.464844 190.394531 74.394531 190.496094 74.320312 190.601562 C 74.265625 190.679688 74.207031 190.761719 74.152344 190.839844 C 74.050781 190.925781 73.960938 191.023438 73.882812 191.136719 C 73.796875 191.261719 73.734375 191.398438 73.6875 191.539062 C 73.566406 191.726562 73.449219 191.917969 73.332031 192.113281 C 73.324219 192.125 73.320312 192.132812 73.3125 192.144531 C 73.308594 192.148438 73.308594 192.152344 73.304688 192.15625 C 73.304688 192.160156 73.304688 192.160156 73.304688 192.160156 C 72.378906 193.675781 71.613281 195.265625 71.015625 196.902344 C 70.433594 195.316406 69.691406 193.777344 68.792969 192.285156 C 68.667969 192.066406 68.535156 191.855469 68.398438 191.644531 C 68.332031 191.539062 68.265625 191.4375 68.195312 191.332031 L 68.136719 191.238281 C 68.109375 191.203125 68.085938 191.164062 68.058594 191.128906 C 67.738281 190.65625 67.410156 190.195312 67.070312 189.75 C 66.734375 189.300781 66.382812 188.871094 66.03125 188.460938 C 65.136719 187.40625 64.128906 186.382812 63.039062 185.417969 C 61.871094 184.382812 60.566406 183.398438 59.164062 182.492188 C 59.160156 182.488281 59.160156 182.488281 59.160156 182.488281 C 56.425781 180.738281 53.421875 179.382812 50.230469 178.457031 C 47.375 177.628906 44.410156 177.160156 41.417969 177.058594 C 40.550781 177.03125 39.820312 177.710938 39.792969 178.578125 C 39.765625 179.445312 40.445312 180.171875 41.3125 180.203125 C 43.511719 180.273438 45.691406 180.570312 47.816406 181.074219 C 47.425781 182.605469 47.230469 184.175781 47.230469 185.765625 C 47.230469 190.214844 48.761719 194.472656 51.664062 198.085938 C 55.1875 202.464844 60.382812 205.476562 66.292969 206.558594 C 67.804688 206.839844 69.386719 206.992188 70.984375 207.003906 C 70.988281 207.003906 70.996094 207.003906 71 207.003906 C 71 207.003906 71.003906 207.003906 71.003906 207.003906 C 71.007812 207.003906 71.007812 207.003906 71.007812 207.003906 L 71.195312 207.003906 C 72.84375 207.003906 74.488281 206.855469 76.089844 206.5625 C 82.007812 205.472656 87.203125 202.464844 90.722656 198.085938 C 93.625 194.472656 95.15625 190.210938 95.15625 185.765625 C 95.15625 184.152344 94.953125 182.554688 94.546875 180.992188 C 96.667969 180.511719 98.851562 180.242188 101.058594 180.1875 C 101.925781 180.167969 102.613281 179.445312 102.59375 178.578125 C 102.574219 177.710938 101.859375 177.027344 100.988281 177.046875 Z M 76.738281 192.632812 C 77.007812 192.242188 77.289062 191.851562 77.585938 191.46875 C 77.609375 191.4375 77.632812 191.40625 77.660156 191.375 C 77.792969 191.207031 77.9375 191.039062 78.074219 190.871094 C 78.601562 191.453125 79.40625 191.832031 80.320312 191.847656 C 81.929688 191.871094 83.257812 190.742188 83.28125 189.328125 C 83.300781 188.378906 82.730469 187.546875 81.867188 187.09375 C 81.890625 187.074219 81.910156 187.054688 81.933594 187.039062 C 82.125 186.882812 82.316406 186.726562 82.511719 186.578125 C 82.609375 186.5 82.710938 186.425781 82.808594 186.351562 C 83.007812 186.203125 83.210938 186.054688 83.414062 185.910156 C 83.503906 185.847656 83.589844 185.785156 83.679688 185.722656 C 83.714844 185.695312 83.753906 185.671875 83.789062 185.648438 C 85.121094 186.535156 85.902344 187.898438 85.878906 189.359375 C 85.824219 191.925781 83.296875 193.976562 80.273438 193.933594 C 78.914062 193.914062 77.652344 193.484375 76.671875 192.730469 C 76.691406 192.699219 76.714844 192.667969 76.738281 192.632812 Z M 58.277344 185.683594 C 58.300781 185.699219 58.320312 185.710938 58.34375 185.726562 C 58.410156 185.777344 58.480469 185.824219 58.546875 185.875 C 58.757812 186.023438 58.964844 186.171875 59.167969 186.324219 C 59.253906 186.390625 59.339844 186.457031 59.429688 186.523438 C 59.617188 186.667969 59.800781 186.8125 59.984375 186.960938 C 60.050781 187.011719 60.113281 187.0625 60.179688 187.113281 C 59.476562 187.582031 59.023438 188.320312 59.023438 189.152344 C 59.023438 190.566406 60.332031 191.714844 61.941406 191.714844 C 62.75 191.714844 63.476562 191.417969 64.003906 190.953125 C 64.191406 191.183594 64.382812 191.410156 64.566406 191.652344 C 64.667969 191.785156 64.761719 191.925781 64.859375 192.058594 C 65.035156 192.296875 65.207031 192.539062 65.375 192.785156 C 64.410156 193.4375 63.210938 193.796875 61.941406 193.796875 C 58.90625 193.796875 56.433594 191.714844 56.433594 189.152344 C 56.433594 187.808594 57.109375 186.558594 58.277344 185.683594 Z M 66.863281 203.46875 C 61.695312 202.519531 57.164062 199.910156 54.113281 196.117188 C 51.667969 193.070312 50.375 189.492188 50.375 185.765625 C 50.375 184.472656 50.53125 183.191406 50.839844 181.945312 C 52.453125 182.5 54 183.183594 55.476562 183.980469 C 54.089844 185.386719 53.289062 187.222656 53.289062 189.152344 C 53.289062 193.449219 57.171875 196.941406 61.941406 196.941406 C 63.773438 196.941406 65.515625 196.421875 66.964844 195.488281 C 68.300781 198.125 69.105469 200.902344 69.347656 203.792969 C 68.503906 203.726562 67.675781 203.621094 66.863281 203.46875 Z M 88.273438 196.117188 C 85.226562 199.910156 80.699219 202.519531 75.523438 203.46875 C 74.585938 203.644531 73.625 203.757812 72.660156 203.816406 C 72.90625 200.914062 73.71875 198.117188 75.070312 195.453125 C 76.53125 196.472656 78.324219 197.050781 80.226562 197.078125 C 80.273438 197.078125 80.320312 197.078125 80.367188 197.078125 C 85.066406 197.078125 88.933594 193.667969 89.019531 189.421875 C 89.019531 189.417969 89.019531 189.417969 89.019531 189.417969 C 89.058594 187.324219 88.183594 185.367188 86.644531 183.917969 C 88.195312 183.089844 89.824219 182.390625 91.519531 181.828125 C 91.847656 183.117188 92.015625 184.4375 92.015625 185.765625 C 92.015625 189.488281 90.722656 193.070312 88.273438 196.117188 Z M 88.273438 196.117188 " fill-opacity="1" fill-rule="nonzero"/></g></svg>