<svg xmlns="http://www.w3.org/2000/svg" xmlns:xlink="http://www.w3.org/1999/xlink" width="300" zoomAndPan="magnify" viewBox="0 0 224.87999 44.999999" height="60" preserveAspectRatio="xMidYMid meet" version="1.0"><defs><g/><clipPath id="dd7f1e05b0"><path d="M 71 3 L 77.558594 3 L 77.558594 10 L 71 10 Z M 71 3 " clip-rule="nonzero"/></clipPath><clipPath id="98b7ae4642"><rect x="0" width="78" y="0" height="12"/></clipPath><clipPath id="ac9c744d39"><path d="M 56.695312 12.53125 L 70.9375 12.53125 L 70.9375 20.027344 L 56.695312 20.027344 Z M 56.695312 12.53125 " clip-rule="nonzero"/></clipPath><clipPath id="2ffbf8b9a1"><path d="M 55.910156 25.554688 L 71.652344 25.554688 L 71.652344 32.246094 L 55.910156 32.246094 Z M 55.910156 25.554688 " clip-rule="nonzero"/></clipPath><clipPath id="ec71b6b088"><path d="M 58 16.457031 L 69 16.457031 L 69 23 L 58 23 Z M 58 16.457031 " clip-rule="nonzero"/></clipPath><clipPath id="dca10f26d0"><path d="M 55.421875 19 L 71.914062 19 L 71.914062 27.703125 L 55.421875 27.703125 Z M 55.421875 19 " clip-rule="nonzero"/></clipPath></defs><g transform="matrix(1, 0, 0, 1, 75, 15)"><g clip-path="url(#98b7ae4642)"><g fill="#ffffff" fill-opacity="1"><g transform="translate(0.660918, 9.476996)"><g><path d="M 1.484375 -2.140625 L 1.484375 0 L 0.6875 0 L 0.6875 -5.953125 L 2.703125 -5.953125 C 3.546875 -5.953125 4.148438 -5.804688 4.515625 -5.515625 C 4.878906 -5.234375 5.0625 -4.757812 5.0625 -4.09375 C 5.0625 -3.570312 4.945312 -3.15625 4.71875 -2.84375 C 4.488281 -2.539062 4.140625 -2.335938 3.671875 -2.234375 L 5.21875 0 L 4.25 0 L 2.8125 -2.140625 Z M 4.25 -4.09375 C 4.25 -4.5 4.128906 -4.785156 3.890625 -4.953125 C 3.660156 -5.128906 3.265625 -5.21875 2.703125 -5.21875 L 1.484375 -5.21875 L 1.484375 -2.84375 L 2.703125 -2.84375 C 3.253906 -2.84375 3.648438 -2.941406 3.890625 -3.140625 C 4.128906 -3.335938 4.25 -3.65625 4.25 -4.09375 Z M 4.25 -4.09375 "/></g></g></g><g fill="#ffffff" fill-opacity="1"><g transform="translate(6.163835, 9.476996)"><g><path d="M 4.640625 -0.765625 L 4.640625 0 L 0.6875 0 L 0.6875 -5.953125 L 4.546875 -5.953125 L 4.546875 -5.21875 L 1.484375 -5.21875 L 1.484375 -3.40625 L 4.203125 -3.40625 L 4.203125 -2.6875 L 1.484375 -2.6875 L 1.484375 -0.765625 Z M 4.640625 -0.765625 "/></g></g></g><g fill="#ffffff" fill-opacity="1"><g transform="translate(11.134521, 9.476996)"><g><path d="M 2.984375 -2.5 L 1.53125 -2.84375 C 1.132812 -2.9375 0.847656 -3.097656 0.671875 -3.328125 C 0.492188 -3.554688 0.40625 -3.878906 0.40625 -4.296875 C 0.40625 -4.898438 0.578125 -5.34375 0.921875 -5.625 C 1.265625 -5.90625 1.800781 -6.046875 2.53125 -6.046875 C 2.84375 -6.046875 3.117188 -6.03125 3.359375 -6 C 3.597656 -5.976562 3.820312 -5.9375 4.03125 -5.875 L 4.03125 -5.15625 C 3.769531 -5.21875 3.519531 -5.257812 3.28125 -5.28125 C 3.039062 -5.300781 2.789062 -5.3125 2.53125 -5.3125 C 2.039062 -5.3125 1.695312 -5.238281 1.5 -5.09375 C 1.300781 -4.957031 1.203125 -4.707031 1.203125 -4.34375 C 1.203125 -4.125 1.25 -3.953125 1.34375 -3.828125 C 1.4375 -3.710938 1.585938 -3.628906 1.796875 -3.578125 L 3.234375 -3.234375 C 3.734375 -3.117188 4.066406 -2.953125 4.234375 -2.734375 C 4.410156 -2.515625 4.5 -2.175781 4.5 -1.71875 C 4.5 -1.0625 4.328125 -0.597656 3.984375 -0.328125 C 3.648438 -0.0546875 3.113281 0.078125 2.375 0.078125 C 1.988281 0.078125 1.613281 0.0507812 1.25 0 C 0.894531 -0.0507812 0.613281 -0.117188 0.40625 -0.203125 L 0.40625 -0.953125 C 0.707031 -0.867188 1.023438 -0.800781 1.359375 -0.75 C 1.691406 -0.707031 2.03125 -0.6875 2.375 -0.6875 C 2.851562 -0.6875 3.1875 -0.753906 3.375 -0.890625 C 3.5625 -1.035156 3.65625 -1.304688 3.65625 -1.703125 C 3.65625 -1.953125 3.609375 -2.128906 3.515625 -2.234375 C 3.421875 -2.347656 3.242188 -2.4375 2.984375 -2.5 Z M 2.984375 -2.5 "/></g></g></g><g fill="#ffffff" fill-opacity="1"><g transform="translate(15.924627, 9.476996)"><g><path d="M 1.484375 -5.953125 L 1.484375 0 L 0.6875 0 L 0.6875 -5.953125 Z M 1.484375 -5.953125 "/></g></g></g><g fill="#ffffff" fill-opacity="1"><g transform="translate(18.101084, 9.476996)"><g><path d="M 4.328125 -0.765625 L 4.328125 0 L 0.6875 0 L 0.6875 -5.953125 L 1.484375 -5.953125 L 1.484375 -0.765625 Z M 4.328125 -0.765625 "/></g></g></g><g fill="#ffffff" fill-opacity="1"><g transform="translate(22.587055, 9.476996)"><g><path d="M 1.484375 -5.953125 L 1.484375 0 L 0.6875 0 L 0.6875 -5.953125 Z M 1.484375 -5.953125 "/></g></g></g><g fill="#ffffff" fill-opacity="1"><g transform="translate(24.763513, 9.476996)"><g><path d="M 4.640625 -0.765625 L 4.640625 0 L 0.6875 0 L 0.6875 -5.953125 L 4.546875 -5.953125 L 4.546875 -5.21875 L 1.484375 -5.21875 L 1.484375 -3.40625 L 4.203125 -3.40625 L 4.203125 -2.6875 L 1.484375 -2.6875 L 1.484375 -0.765625 Z M 4.640625 -0.765625 "/></g></g></g><g fill="#ffffff" fill-opacity="1"><g transform="translate(29.734198, 9.476996)"><g><path d="M 5.5625 -5.953125 L 5.5625 0 L 4.734375 0 L 1.4375 -4.640625 L 1.4375 0 L 0.6875 0 L 0.6875 -5.953125 L 1.5 -5.953125 L 4.796875 -1.25 L 4.796875 -5.953125 Z M 5.5625 -5.953125 "/></g></g></g><g fill="#ffffff" fill-opacity="1"><g transform="translate(35.978441, 9.476996)"><g><path d="M 4.90625 -5.953125 L 4.90625 -5.21875 L 2.921875 -5.21875 L 2.921875 0 L 2.125 0 L 2.125 -5.21875 L 0.140625 -5.21875 L 0.140625 -5.953125 Z M 4.90625 -5.953125 "/></g></g></g><g fill="#ffffff" fill-opacity="1"><g transform="translate(41.025158, 9.476996)"><g/></g></g><g fill="#008542" fill-opacity="1"><g transform="translate(42.651529, 9.476996)"><g><path d="M 1.484375 -1.921875 L 1.484375 0 L 0.6875 0 L 0.6875 -5.953125 L 2.703125 -5.953125 C 3.546875 -5.953125 4.148438 -5.800781 4.515625 -5.5 C 4.878906 -5.195312 5.0625 -4.703125 5.0625 -4.015625 C 5.0625 -3.304688 4.867188 -2.78125 4.484375 -2.4375 C 4.109375 -2.09375 3.523438 -1.921875 2.734375 -1.921875 Z M 4.25 -4.015625 C 4.25 -4.453125 4.128906 -4.757812 3.890625 -4.9375 C 3.648438 -5.125 3.253906 -5.21875 2.703125 -5.21875 L 1.484375 -5.21875 L 1.484375 -2.640625 L 2.703125 -2.640625 C 3.253906 -2.640625 3.648438 -2.742188 3.890625 -2.953125 C 4.128906 -3.171875 4.25 -3.523438 4.25 -4.015625 Z M 4.25 -4.015625 "/></g></g></g><g fill="#008542" fill-opacity="1"><g transform="translate(48.002382, 9.476996)"><g><path d="M 1.484375 -2.140625 L 1.484375 0 L 0.6875 0 L 0.6875 -5.953125 L 2.703125 -5.953125 C 3.546875 -5.953125 4.148438 -5.804688 4.515625 -5.515625 C 4.878906 -5.234375 5.0625 -4.757812 5.0625 -4.09375 C 5.0625 -3.570312 4.945312 -3.15625 4.71875 -2.84375 C 4.488281 -2.539062 4.140625 -2.335938 3.671875 -2.234375 L 5.21875 0 L 4.25 0 L 2.8125 -2.140625 Z M 4.25 -4.09375 C 4.25 -4.5 4.128906 -4.785156 3.890625 -4.953125 C 3.660156 -5.128906 3.265625 -5.21875 2.703125 -5.21875 L 1.484375 -5.21875 L 1.484375 -2.84375 L 2.703125 -2.84375 C 3.253906 -2.84375 3.648438 -2.941406 3.890625 -3.140625 C 4.128906 -3.335938 4.25 -3.65625 4.25 -4.09375 Z M 4.25 -4.09375 "/></g></g></g><g fill="#008542" fill-opacity="1"><g transform="translate(53.505299, 9.476996)"><g><path d="M 1.484375 -5.953125 L 1.484375 0 L 0.6875 0 L 0.6875 -5.953125 Z M 1.484375 -5.953125 "/></g></g></g><g fill="#008542" fill-opacity="1"><g transform="translate(55.681757, 9.476996)"><g><path d="M 2.3125 0 L 0.078125 -5.953125 L 0.96875 -5.953125 L 2.34375 -2.1875 C 2.382812 -2.03125 2.441406 -1.828125 2.515625 -1.578125 C 2.597656 -1.335938 2.691406 -1.023438 2.796875 -0.640625 C 2.878906 -0.941406 2.957031 -1.226562 3.03125 -1.5 C 3.113281 -1.769531 3.191406 -2 3.265625 -2.1875 L 4.609375 -5.953125 L 5.484375 -5.953125 L 3.265625 0 Z M 2.3125 0 "/></g></g></g><g fill="#008542" fill-opacity="1"><g transform="translate(61.251203, 9.476996)"><g><path d="M 0.9375 0 L 0.078125 0 L 2.4375 -5.953125 L 3.265625 -5.953125 L 5.59375 0 L 4.734375 0 L 4.203125 -1.4375 L 1.46875 -1.4375 Z M 2.828125 -5.21875 C 2.765625 -5 2.691406 -4.765625 2.609375 -4.515625 C 2.523438 -4.265625 2.4375 -4.015625 2.34375 -3.765625 L 1.734375 -2.140625 L 3.9375 -2.140625 L 3.328125 -3.765625 C 3.203125 -4.117188 3.101562 -4.398438 3.03125 -4.609375 C 2.957031 -4.828125 2.890625 -5.03125 2.828125 -5.21875 Z M 2.828125 -5.21875 "/></g></g></g><g fill="#008542" fill-opacity="1"><g transform="translate(66.934699, 9.476996)"><g><path d="M 3.046875 -0.6875 C 3.304688 -0.6875 3.578125 -0.710938 3.859375 -0.765625 C 4.148438 -0.828125 4.421875 -0.910156 4.671875 -1.015625 L 4.671875 -0.296875 C 4.328125 -0.148438 4.019531 -0.0507812 3.75 0 C 3.476562 0.0507812 3.195312 0.078125 2.90625 0.078125 C 1.988281 0.078125 1.34375 -0.15625 0.96875 -0.625 C 0.601562 -1.101562 0.421875 -1.894531 0.421875 -3 C 0.421875 -4.050781 0.632812 -4.820312 1.0625 -5.3125 C 1.5 -5.800781 2.191406 -6.046875 3.140625 -6.046875 C 3.429688 -6.046875 3.691406 -6.039062 3.921875 -6.03125 C 4.148438 -6.019531 4.359375 -6 4.546875 -5.96875 L 4.546875 -5.25 C 4.316406 -5.28125 4.085938 -5.296875 3.859375 -5.296875 C 3.640625 -5.304688 3.398438 -5.3125 3.140625 -5.3125 C 2.429688 -5.3125 1.9375 -5.132812 1.65625 -4.78125 C 1.382812 -4.4375 1.25 -3.84375 1.25 -3 C 1.25 -2.132812 1.375 -1.53125 1.625 -1.1875 C 1.875 -0.851562 2.347656 -0.6875 3.046875 -0.6875 Z M 3.046875 -0.6875 "/></g></g></g><g clip-path="url(#dd7f1e05b0)"><g fill="#008542" fill-opacity="1"><g transform="translate(71.857864, 9.476996)"><g><path d="M 4.515625 -5.953125 L 5.359375 -5.953125 L 3.140625 -2.265625 L 3.140625 0 L 2.34375 0 L 2.34375 -2.265625 L 0.0625 -5.953125 L 0.984375 -5.953125 L 2.75 -2.984375 Z M 4.515625 -5.953125 "/></g></g></g></g></g></g><g clip-path="url(#ac9c744d39)"><path fill="#ffffff" d="M 67.359375 13.789062 C 65.621094 13.753906 64.269531 12.851562 63.804688 12.535156 C 63.34375 12.851562 61.988281 13.753906 60.25 13.789062 C 58.34375 13.832031 57.148438 13.371094 56.695312 13.066406 L 56.695312 18.121094 L 57.464844 18.121094 L 57.464844 14.214844 C 58.289062 14.453125 59.144531 14.566406 60.003906 14.554688 L 60.273438 14.554688 C 61.457031 14.519531 62.667969 14.136719 63.804688 13.4375 C 64.945312 14.136719 66.152344 14.519531 67.339844 14.542969 L 67.609375 14.542969 C 68.464844 14.554688 69.324219 14.441406 70.148438 14.203125 L 70.148438 18.109375 L 70.914062 18.109375 L 70.914062 13.066406 C 70.464844 13.371094 69.269531 13.832031 67.359375 13.789062 Z M 68.261719 24.621094 C 67.066406 26.269531 65.488281 27.453125 63.804688 27.996094 C 62.113281 27.464844 60.542969 26.269531 59.347656 24.632812 C 59.019531 24.179688 58.726562 23.707031 58.480469 23.210938 L 57.621094 23.210938 C 58.816406 25.769531 61.085938 28.015625 63.804688 28.785156 C 65.835938 28.207031 67.609375 26.808594 68.882812 25.070312 C 69.3125 24.484375 69.683594 23.851562 69.988281 23.199219 L 69.144531 23.199219 C 68.882812 23.695312 68.589844 24.167969 68.261719 24.621094 Z M 68.261719 24.621094 " fill-opacity="1" fill-rule="nonzero"/></g><g clip-path="url(#2ffbf8b9a1)"><path fill="#ffffff" d="M 67.757812 15.652344 C 65.828125 15.613281 64.324219 14.609375 63.808594 14.257812 C 63.292969 14.609375 61.789062 15.613281 59.859375 15.652344 C 57.738281 15.703125 56.410156 15.1875 55.910156 14.847656 L 55.910156 20.464844 L 56.761719 20.464844 L 56.761719 16.128906 C 57.675781 16.390625 58.628906 16.515625 59.582031 16.503906 L 59.882812 16.503906 C 61.199219 16.464844 62.542969 16.039062 63.808594 15.261719 C 65.074219 16.039062 66.417969 16.464844 67.734375 16.492188 L 68.035156 16.492188 C 68.988281 16.503906 69.941406 16.378906 70.855469 16.113281 L 70.855469 20.453125 L 71.707031 20.453125 L 71.707031 14.847656 C 71.207031 15.1875 69.878906 15.703125 67.757812 15.652344 Z M 68.761719 27.6875 C 67.433594 29.519531 65.675781 30.835938 63.808594 31.4375 C 61.925781 30.847656 60.183594 29.519531 58.855469 27.703125 C 58.492188 27.199219 58.164062 26.671875 57.890625 26.121094 L 56.9375 26.121094 C 58.265625 28.96875 60.785156 31.464844 63.808594 32.316406 C 66.066406 31.675781 68.035156 30.121094 69.453125 28.191406 C 69.929688 27.539062 70.339844 26.835938 70.679688 26.109375 L 69.738281 26.109375 C 69.453125 26.660156 69.125 27.1875 68.761719 27.6875 Z M 68.761719 27.6875 " fill-opacity="1" fill-rule="nonzero"/></g><g clip-path="url(#ec71b6b088)"><path fill="#ffffff" d="M 59.046875 19.253906 C 60.855469 19.691406 62.429688 20.6875 63.480469 22.058594 C 63.558594 22.164062 63.679688 22.222656 63.8125 22.222656 C 63.941406 22.222656 64.066406 22.164062 64.144531 22.058594 C 65.191406 20.6875 66.765625 19.691406 68.574219 19.257812 C 68.71875 19.222656 68.835938 19.113281 68.878906 18.972656 C 68.921875 18.832031 68.886719 18.675781 68.785156 18.566406 C 67.566406 17.226562 65.753906 16.460938 63.8125 16.460938 C 61.871094 16.460938 60.058594 17.226562 58.835938 18.566406 C 58.734375 18.675781 58.699219 18.828125 58.742188 18.96875 C 58.789062 19.113281 58.902344 19.222656 59.046875 19.253906 Z M 63.8125 17.300781 C 65.261719 17.300781 66.628906 17.78125 67.660156 18.644531 C 66.140625 19.140625 64.808594 20.003906 63.8125 21.140625 C 62.816406 20.007812 61.480469 19.140625 59.964844 18.644531 C 60.992188 17.78125 62.359375 17.300781 63.8125 17.300781 Z M 63.8125 17.300781 " fill-opacity="1" fill-rule="nonzero"/></g><g clip-path="url(#dca10f26d0)"><path fill="#ffffff" d="M 71.761719 19.800781 C 70.957031 19.820312 70.164062 19.9375 69.402344 20.148438 C 68.515625 20.394531 67.679688 20.765625 66.925781 21.25 C 66.539062 21.496094 66.171875 21.777344 65.832031 22.082031 C 65.597656 22.292969 65.371094 22.519531 65.167969 22.753906 C 65.113281 22.816406 65.058594 22.882812 65.003906 22.945312 C 64.988281 22.964844 64.972656 22.984375 64.957031 23.003906 C 64.921875 23.050781 64.886719 23.09375 64.851562 23.136719 C 64.832031 23.164062 64.8125 23.1875 64.792969 23.214844 C 64.765625 23.253906 64.734375 23.292969 64.703125 23.335938 C 64.683594 23.363281 64.664062 23.390625 64.644531 23.417969 C 64.628906 23.4375 64.613281 23.460938 64.601562 23.480469 C 64.574219 23.503906 64.550781 23.53125 64.527344 23.558594 C 64.503906 23.59375 64.488281 23.628906 64.476562 23.667969 C 64.445312 23.71875 64.414062 23.769531 64.382812 23.820312 C 64.378906 23.824219 64.378906 23.828125 64.375 23.828125 C 64.375 23.828125 64.375 23.832031 64.375 23.832031 C 64.128906 24.238281 63.921875 24.660156 63.761719 25.097656 C 63.609375 24.675781 63.410156 24.265625 63.167969 23.867188 C 63.136719 23.808594 63.101562 23.753906 63.066406 23.695312 C 63.046875 23.667969 63.03125 23.640625 63.011719 23.613281 L 62.996094 23.585938 C 62.988281 23.578125 62.980469 23.566406 62.972656 23.558594 C 62.890625 23.433594 62.800781 23.308594 62.710938 23.191406 C 62.621094 23.070312 62.527344 22.957031 62.433594 22.847656 C 62.195312 22.566406 61.925781 22.292969 61.632812 22.035156 C 61.324219 21.757812 60.976562 21.496094 60.601562 21.253906 C 60.601562 21.253906 60.597656 21.253906 60.597656 21.253906 C 59.871094 20.785156 59.070312 20.421875 58.214844 20.175781 C 57.453125 19.957031 56.664062 19.828125 55.863281 19.804688 C 55.632812 19.796875 55.4375 19.976562 55.429688 20.207031 C 55.421875 20.441406 55.605469 20.632812 55.835938 20.640625 C 56.421875 20.660156 57.003906 20.742188 57.570312 20.875 C 57.46875 21.285156 57.414062 21.703125 57.414062 22.128906 C 57.414062 23.3125 57.824219 24.449219 58.597656 25.414062 C 59.539062 26.582031 60.925781 27.386719 62.503906 27.675781 C 62.90625 27.75 63.328125 27.792969 63.753906 27.796875 C 63.757812 27.796875 63.757812 27.796875 63.757812 27.796875 C 63.757812 27.796875 63.761719 27.796875 63.761719 27.796875 L 63.8125 27.796875 C 64.25 27.796875 64.691406 27.753906 65.117188 27.675781 C 66.695312 27.386719 68.082031 26.582031 69.023438 25.414062 C 69.796875 24.449219 70.207031 23.3125 70.207031 22.128906 C 70.207031 21.695312 70.152344 21.269531 70.042969 20.851562 C 70.609375 20.726562 71.191406 20.652344 71.78125 20.636719 C 72.011719 20.632812 72.195312 20.441406 72.191406 20.210938 C 72.1875 19.976562 71.996094 19.792969 71.761719 19.800781 Z M 65.289062 23.960938 C 65.363281 23.855469 65.4375 23.75 65.515625 23.648438 C 65.523438 23.640625 65.53125 23.632812 65.535156 23.625 C 65.570312 23.578125 65.609375 23.535156 65.648438 23.488281 C 65.789062 23.644531 66.003906 23.746094 66.246094 23.75 C 66.675781 23.757812 67.03125 23.457031 67.039062 23.078125 C 67.042969 22.824219 66.890625 22.601562 66.660156 22.480469 C 66.664062 22.476562 66.671875 22.472656 66.675781 22.464844 C 66.726562 22.425781 66.78125 22.382812 66.832031 22.34375 C 66.859375 22.324219 66.882812 22.304688 66.910156 22.285156 C 66.964844 22.242188 67.019531 22.203125 67.070312 22.164062 C 67.097656 22.148438 67.121094 22.132812 67.144531 22.117188 C 67.152344 22.109375 67.164062 22.101562 67.171875 22.097656 C 67.527344 22.332031 67.734375 22.695312 67.730469 23.085938 C 67.714844 23.769531 67.039062 24.316406 66.234375 24.308594 C 65.871094 24.300781 65.535156 24.1875 65.273438 23.984375 C 65.277344 23.976562 65.285156 23.96875 65.289062 23.960938 Z M 60.363281 22.105469 C 60.371094 22.109375 60.375 22.113281 60.382812 22.117188 C 60.398438 22.128906 60.417969 22.144531 60.4375 22.15625 C 60.492188 22.195312 60.546875 22.234375 60.601562 22.277344 C 60.625 22.292969 60.648438 22.3125 60.671875 22.328125 C 60.722656 22.367188 60.769531 22.40625 60.820312 22.445312 C 60.835938 22.460938 60.855469 22.472656 60.871094 22.488281 C 60.683594 22.613281 60.5625 22.808594 60.5625 23.03125 C 60.5625 23.40625 60.910156 23.714844 61.34375 23.714844 C 61.558594 23.714844 61.75 23.636719 61.890625 23.511719 C 61.941406 23.574219 61.992188 23.632812 62.042969 23.699219 C 62.070312 23.734375 62.09375 23.769531 62.121094 23.804688 C 62.167969 23.871094 62.214844 23.933594 62.257812 24 C 62 24.175781 61.679688 24.269531 61.34375 24.269531 C 60.53125 24.269531 59.871094 23.714844 59.871094 23.03125 C 59.871094 22.671875 60.050781 22.339844 60.363281 22.105469 Z M 62.65625 26.851562 C 61.277344 26.597656 60.066406 25.902344 59.253906 24.890625 C 58.601562 24.074219 58.253906 23.121094 58.253906 22.128906 C 58.253906 21.78125 58.296875 21.441406 58.378906 21.109375 C 58.808594 21.253906 59.222656 21.4375 59.617188 21.648438 C 59.246094 22.027344 59.03125 22.515625 59.03125 23.03125 C 59.03125 24.175781 60.070312 25.109375 61.34375 25.109375 C 61.832031 25.109375 62.296875 24.96875 62.683594 24.722656 C 63.039062 25.425781 63.253906 26.167969 63.320312 26.9375 C 63.09375 26.921875 62.871094 26.890625 62.65625 26.851562 Z M 68.371094 24.890625 C 67.554688 25.902344 66.347656 26.597656 64.964844 26.851562 C 64.714844 26.898438 64.460938 26.929688 64.203125 26.945312 C 64.269531 26.167969 64.484375 25.421875 64.847656 24.710938 C 65.234375 24.984375 65.714844 25.136719 66.222656 25.144531 C 66.234375 25.144531 66.246094 25.144531 66.257812 25.144531 C 67.511719 25.144531 68.546875 24.234375 68.570312 23.101562 C 68.578125 22.542969 68.34375 22.019531 67.933594 21.632812 C 68.347656 21.414062 68.78125 21.226562 69.234375 21.078125 C 69.324219 21.421875 69.367188 21.773438 69.367188 22.128906 C 69.367188 23.121094 69.023438 24.074219 68.371094 24.890625 Z M 68.371094 24.890625 " fill-opacity="1" fill-rule="nonzero"/></g></svg>