<svg xmlns="http://www.w3.org/2000/svg" viewBox="0 0 300 100">
  <!-- Datadog dog icon with better detail -->
  <circle cx="30" cy="40" r="12" fill="#632CA6"/>
  <circle cx="30" cy="40" r="8" fill="#FFFFFF"/>
  
  <!-- Dog eyes -->
  <circle cx="26" cy="37" r="2" fill="#632CA6"/>
  <circle cx="34" cy="37" r="2" fill="#632CA6"/>
  <circle cx="26" cy="37" r="1" fill="#FFFFFF"/>
  <circle cx="34" cy="37" r="1" fill="#FFFFFF"/>
  <circle cx="25.5" cy="36.5" r="0.3" fill="#632CA6"/>
  <circle cx="33.5" cy="36.5" r="0.3" fill="#632CA6"/>
  
  <!-- Dog nose -->
  <ellipse cx="30" cy="45" rx="1.5" ry="1" fill="#632CA6"/>
  
  <!-- Dog ears -->
  <path d="M20 30 Q15 25 18 35 Q20 32 22 30" fill="#632CA6"/>
  <path d="M40 30 Q45 25 42 35 Q40 32 38 30" fill="#632CA6"/>
  
  <!-- Dog mouth -->
  <path d="M28 45 Q30 47 32 45" stroke="#632CA6" stroke-width="1" fill="none"/>
  
  <!-- Datadog text -->
  <text x="55" y="45" font-family="Arial, Helvetica, sans-serif" font-size="26" font-weight="bold" fill="#632CA6">Datadog</text>
  
  <!-- Additional branding elements -->
  <path d="M55 55 L85 55" stroke="#632CA6" stroke-width="2" opacity="0.3"/>
  <path d="M55 60 L80 60" stroke="#632CA6" stroke-width="1" opacity="0.2"/>
</svg>