<svg xmlns="http://www.w3.org/2000/svg" viewBox="0 0 300 100">
  <!-- Palantir eye icon with better detail -->
  <ellipse cx="35" cy="40" rx="15" ry="8" fill="#000000"/>
  <ellipse cx="35" cy="40" rx="12" ry="6" fill="#FFFFFF"/>
  <ellipse cx="35" cy="40" rx="8" ry="4" fill="#000000"/>
  <ellipse cx="35" cy="40" rx="6" ry="3" fill="#FFFFFF"/>
  <circle cx="35" cy="40" r="2" fill="#000000"/>
  <circle cx="34" cy="39" r="0.5" fill="#FFFFFF"/>
  
  <!-- Eye lashes -->
  <path d="M25 32 L20 30 L22 35" stroke="#000000" stroke-width="1" fill="none"/>
  <path d="M30 30 L25 28 L27 33" stroke="#000000" stroke-width="1" fill="none"/>
  <path d="M35 30 L30 28 L32 33" stroke="#000000" stroke-width="1" fill="none"/>
  <path d="M40 30 L35 28 L37 33" stroke="#000000" stroke-width="1" fill="none"/>
  <path d="M45 32 L40 30 L42 35" stroke="#000000" stroke-width="1" fill="none"/>
  
  <!-- Palantir text -->
  <text x="65" y="45" font-family="Arial, Helvetica, sans-serif" font-size="26" font-weight="bold" fill="#000000">Palantir</text>
  
  <!-- Additional branding elements -->
  <path d="M65 55 L95 55" stroke="#000000" stroke-width="2" opacity="0.3"/>
  <path d="M65 60 L90 60" stroke="#000000" stroke-width="1" opacity="0.2"/>
</svg>