<svg xmlns="http://www.w3.org/2000/svg" viewBox="0 0 200 200" fill="none">
  <!-- Splunk Logo - Official Design -->
  <g transform="translate(100, 100)">
    <!-- Splunk text with official font styling -->
    <text x="0" y="0" text-anchor="middle" fill="#65B73C" font-family="Arial, Helvetica, sans-serif" font-size="24" font-weight="bold" letter-spacing="1">SPLUNK</text>
    
    <!-- Official Splunk icon elements -->
    <!-- Main circle representing data -->
    <circle cx="0" cy="-35" r="8" fill="#65B73C"/>
    
    <!-- Data points/analytics visualization -->
    <circle cx="-25" cy="-20" r="3" fill="#65B73C"/>
    <circle cx="-15" cy="-30" r="2" fill="#65B73C"/>
    <circle cx="-5" cy="-25" r="2.5" fill="#65B73C"/>
    <circle cx="5" cy="-35" r="2" fill="#65B73C"/>
    <circle cx="15" cy="-20" r="3" fill="#65B73C"/>
    <circle cx="25" cy="-30" r="2" fill="#65B73C"/>
    
    <!-- Connecting lines representing data flow -->
    <line x1="-25" y1="-20" x2="-15" y2="-30" stroke="#65B73C" stroke-width="1.5" opacity="0.8"/>
    <line x1="-15" y1="-30" x2="-5" y2="-25" stroke="#65B73C" stroke-width="1.5" opacity="0.8"/>
    <line x1="-5" y1="-25" x2="5" y2="-35" stroke="#65B73C" stroke-width="1.5" opacity="0.8"/>
    <line x1="5" y1="-35" x2="15" y2="-20" stroke="#65B73C" stroke-width="1.5" opacity="0.8"/>
    <line x1="15" y1="-20" x2="25" y2="-30" stroke="#65B73C" stroke-width="1.5" opacity="0.8"/>
    
    <!-- Additional data visualization elements -->
    <rect x="-30" y="10" width="4" height="12" fill="#65B73C" rx="2"/>
    <rect x="-20" y="5" width="4" height="17" fill="#65B73C" rx="2"/>
    <rect x="-10" y="8" width="4" height="14" fill="#65B73C" rx="2"/>
    <rect x="0" y="3" width="4" height="19" fill="#65B73C" rx="2"/>
    <rect x="10" y="7" width="4" height="15" fill="#65B73C" rx="2"/>
    <rect x="20" y="12" width="4" height="10" fill="#65B73C" rx="2"/>
    <rect x="30" y="6" width="4" height="16" fill="#65B73C" rx="2"/>
  </g>
</svg> 